<svg width="40" height="40" viewBox="0 0 40 40" fill="none" xmlns="http://www.w3.org/2000/svg">
<path fill-rule="evenodd" clip-rule="evenodd" d="M20 22.5001C21.7681 22.5001 23.4638 21.7977 24.714 20.5475C25.9643 19.2972 26.6666 17.6015 26.6666 15.8334C26.6666 14.0653 25.9643 12.3696 24.714 11.1194C23.4638 9.86913 21.7681 9.16675 20 9.16675C18.2319 9.16675 16.5362 9.86913 15.2859 11.1194C14.0357 12.3696 13.3333 14.0653 13.3333 15.8334C13.3333 17.6015 14.0357 19.2972 15.2859 20.5475C16.5362 21.7977 18.2319 22.5001 20 22.5001ZM20 20.8334C20.6566 20.8334 21.3068 20.7041 21.9134 20.4528C22.52 20.2015 23.0712 19.8332 23.5355 19.3689C23.9998 18.9047 24.3681 18.3535 24.6194 17.7468C24.8707 17.1402 25 16.49 25 15.8334C25 15.1768 24.8707 14.5266 24.6194 13.92C24.3681 13.3134 23.9998 12.7622 23.5355 12.2979C23.0712 11.8336 22.52 11.4653 21.9134 11.214C21.3068 10.9627 20.6566 10.8334 20 10.8334C18.6739 10.8334 17.4021 11.3602 16.4644 12.2979C15.5268 13.2356 15 14.5073 15 15.8334C15 17.1595 15.5268 18.4313 16.4644 19.3689C17.4021 20.3066 18.6739 20.8334 20 20.8334Z" fill="#4373DE"/>
<path fill-rule="evenodd" clip-rule="evenodd" d="M36.6666 20C36.6666 29.205 29.205 36.6667 20 36.6667C10.795 36.6667 3.33331 29.205 3.33331 20C3.33331 10.795 10.795 3.33337 20 3.33337C29.205 3.33337 36.6666 10.795 36.6666 20ZM28.025 32.675C25.6261 34.1987 22.8418 35.0053 20 35C17.0903 35.0053 14.2425 34.1595 11.8075 32.5667C11.6075 32.3167 11.4047 32.0584 11.1991 31.7917C10.9607 31.4794 10.8321 31.0971 10.8333 30.7042C10.8333 29.8067 11.4783 29.0542 12.3408 28.9284C18.045 28.095 21.9725 28.1667 27.6841 28.9575C28.0976 29.018 28.4752 29.2257 28.7476 29.5426C29.02 29.8594 29.1688 30.2639 29.1666 30.6817C29.1666 31.0817 29.0291 31.47 28.7808 31.7734C28.5247 32.085 28.2728 32.3856 28.025 32.675ZM30.8208 30.3884C30.6875 28.8284 29.5033 27.5267 27.9125 27.3067C22.0658 26.4975 17.9791 26.42 12.1 27.2792C10.5 27.5125 9.32081 28.8259 9.18081 30.39C6.49358 27.5993 4.99468 23.8743 4.99998 20C4.99998 11.7159 11.7158 5.00004 20 5.00004C28.2841 5.00004 35 11.7159 35 20C35.0053 23.8735 33.507 27.5977 30.8208 30.3884Z" fill="#4373DE"/>
</svg>
