<svg width="34" height="34" viewBox="0 0 34 34" fill="none" xmlns="http://www.w3.org/2000/svg">
<path d="M29.3056 17.3612L31.25 19.3196L22.1806 28.4723L17.3611 23.6112L19.3056 21.6529L22.1806 24.5418L29.3056 17.3612ZM13.8889 23.6112L18.0556 27.7779H4.16669V25.0001C4.16669 21.9307 9.13891 19.4446 15.2778 19.4446L17.9028 19.5973L13.8889 23.6112ZM15.2778 5.55566C16.7512 5.55566 18.1643 6.14098 19.2062 7.18285C20.248 8.22472 20.8334 9.63779 20.8334 11.1112C20.8334 12.5846 20.248 13.9977 19.2062 15.0396C18.1643 16.0815 16.7512 16.6668 15.2778 16.6668C13.8044 16.6668 12.3913 16.0815 11.3494 15.0396C10.3076 13.9977 9.72224 12.5846 9.72224 11.1112C9.72224 9.63779 10.3076 8.22472 11.3494 7.18285C12.3913 6.14098 13.8044 5.55566 15.2778 5.55566Z" fill="#4373DE"/>
</svg>
