<svg width="40" height="40" viewBox="0 0 40 40" fill="none" xmlns="http://www.w3.org/2000/svg">
<path d="M29.216 24.344C29.216 26.024 29.694 26.694 30.944 26.694C33.73 26.694 35.504 23.144 35.504 17.24C35.504 8.21602 28.928 3.89602 20.718 3.89602C12.272 3.89602 4.59002 9.56002 4.59002 20.264C4.59002 30.488 11.31 36.056 21.63 36.056C25.134 36.056 27.486 35.672 31.084 34.472L31.856 37.686C28.304 38.84 24.508 39.174 21.582 39.174C8.04602 39.174 0.796021 31.734 0.796021 20.262C0.796021 8.69402 9.19802 0.822021 20.766 0.822021C32.814 0.822021 39.196 8.02202 39.196 16.854C39.196 24.342 36.846 30.054 29.454 30.054C26.092 30.054 23.886 28.71 23.598 25.732C22.734 29.044 20.43 30.054 17.308 30.054C13.132 30.054 9.62802 26.836 9.62802 20.358C9.62802 13.83 12.702 9.79802 18.222 9.79802C21.15 9.79802 22.974 10.95 23.786 12.774L25.18 10.23H29.212V24.344H29.216ZM23.314 18.008C23.314 15.37 21.344 14.264 19.712 14.264C17.936 14.264 15.97 15.702 15.97 19.928C15.97 23.288 17.458 25.16 19.712 25.16C21.296 25.16 23.314 24.152 23.314 21.368V18.008Z" fill="#4373DE"/>
</svg>
