<svg width="24" height="24" viewBox="0 0 24 24" fill="none" xmlns="http://www.w3.org/2000/svg">
<path d="M12.594 23.2579L12.582 23.2599L12.511 23.2949L12.491 23.2989L12.477 23.2949L12.406 23.2589C12.3953 23.2563 12.3873 23.2583 12.382 23.2649L12.378 23.2749L12.361 23.7029L12.366 23.7229L12.376 23.7359L12.48 23.8099L12.495 23.8139L12.507 23.8099L12.611 23.7359L12.623 23.7199L12.627 23.7029L12.61 23.2759C12.6073 23.2653 12.602 23.2593 12.594 23.2579ZM12.858 23.1449L12.844 23.1469L12.66 23.2399L12.65 23.2499L12.647 23.2609L12.665 23.6909L12.67 23.7029L12.678 23.7109L12.879 23.8029C12.8917 23.8063 12.9013 23.8036 12.908 23.7949L12.912 23.7809L12.878 23.1669C12.8747 23.1543 12.868 23.1469 12.858 23.1449ZM12.143 23.1469C12.1386 23.1443 12.1333 23.1434 12.1283 23.1445C12.1233 23.1456 12.1188 23.1487 12.116 23.1529L12.11 23.1669L12.076 23.7809C12.0767 23.7929 12.0823 23.8009 12.093 23.8049L12.108 23.8029L12.309 23.7099L12.319 23.7019L12.322 23.6909L12.34 23.2609L12.337 23.2489L12.327 23.2389L12.143 23.1469Z" fill="#625C5C"/>
<path d="M12 2C10.1435 2 8.363 2.7375 7.05024 4.05025C5.73749 5.36301 4.99999 7.14348 4.99999 9V12.528C5.00014 12.6831 4.96419 12.8362 4.89499 12.975L3.17799 16.408C3.09412 16.5757 3.05451 16.7621 3.06294 16.9494C3.07137 17.1368 3.12754 17.3188 3.22614 17.4783C3.32473 17.6379 3.46246 17.7695 3.62626 17.8608C3.79005 17.9521 3.97447 18 4.16199 18H19.838C20.0255 18 20.2099 17.9521 20.3737 17.8608C20.5375 17.7695 20.6753 17.6379 20.7738 17.4783C20.8724 17.3188 20.9286 17.1368 20.937 16.9494C20.9455 16.7621 20.9059 16.5757 20.822 16.408L19.106 12.975C19.0365 12.8362 19.0002 12.6832 19 12.528V9C19 7.14348 18.2625 5.36301 16.9497 4.05025C15.637 2.7375 13.8565 2 12 2ZM12 21C11.3793 21.0003 10.7739 20.8081 10.267 20.4499C9.76016 20.0917 9.37688 19.5852 9.16999 19H14.83C14.6231 19.5852 14.2398 20.0917 13.733 20.4499C13.2261 20.8081 12.6206 21.0003 12 21Z" fill="#625C5C"/>
</svg>
