<svg width="139" height="13" viewBox="0 0 139 13" fill="none" xmlns="http://www.w3.org/2000/svg">
<path fill-rule="evenodd" clip-rule="evenodd" d="M44.8652 1.53307C44.8652 0.900024 44.3876 0.386841 43.7985 0.386841H42.7318C42.1427 0.386841 41.6652 0.900024 41.6652 1.53307V11.467C41.6652 12.1001 42.1427 12.6133 42.7318 12.6133H43.7985C44.3876 12.6133 44.8652 12.1001 44.8652 11.467V1.53307ZM37.431 2.83212H38.4977C39.0868 2.83212 39.5644 3.35762 39.5644 4.00586V11.4395C39.5644 12.0878 39.0868 12.6133 38.4977 12.6133H37.431C36.8419 12.6133 36.3644 12.0878 36.3644 11.4395V4.00586C36.3644 3.35762 36.8419 2.83212 37.431 2.83212ZM33.0993 5.48117H32.0326C31.4435 5.48117 30.9659 6.01336 30.9659 6.66985V11.4246C30.9659 12.0811 31.4435 12.6132 32.0326 12.6132H33.0993C33.6884 12.6132 34.1659 12.0811 34.1659 11.4246V6.66985C34.1659 6.01336 33.6884 5.48117 33.0993 5.48117ZM27.7985 7.92646H26.7318C26.1427 7.92646 25.6652 8.45105 25.6652 9.09816V11.4416C25.6652 12.0887 26.1427 12.6133 26.7318 12.6133H27.7985C28.3876 12.6133 28.8652 12.0887 28.8652 11.4416V9.09816C28.8652 8.45105 28.3876 7.92646 27.7985 7.92646Z" fill="black"/>
<path fill-rule="evenodd" clip-rule="evenodd" d="M60.4365 2.8021C62.9236 2.8022 65.3156 3.72428 67.1181 5.37776C67.2538 5.50542 67.4708 5.50381 67.6045 5.37415L68.902 4.11069C68.9697 4.04493 69.0074 3.95585 69.0068 3.86317C69.0063 3.77049 68.9675 3.68184 68.899 3.61685C64.168 -0.757863 56.7042 -0.757863 51.9732 3.61685C51.9047 3.6818 51.8658 3.77041 51.8652 3.8631C51.8645 3.95578 51.9022 4.04488 51.9699 4.11069L53.2677 5.37415C53.4013 5.504 53.6184 5.50562 53.7541 5.37776C55.5568 3.72418 57.9491 2.80209 60.4365 2.8021ZM60.4331 7.02237C61.7904 7.02229 63.0993 7.53403 64.1054 8.45816C64.2415 8.58931 64.4559 8.58647 64.5885 8.45175L65.8758 7.13244C65.9436 7.06324 65.9812 6.96936 65.9803 6.87181C65.9793 6.77426 65.9398 6.68118 65.8706 6.61339C62.8068 3.72254 58.0621 3.72254 54.9982 6.61339C54.929 6.68118 54.8895 6.77431 54.8886 6.87189C54.8877 6.96947 54.9255 7.06334 54.9934 7.13244L56.2803 8.45175C56.413 8.58647 56.6273 8.58931 56.7634 8.45816C57.7689 7.53464 59.0767 7.02294 60.4331 7.02237ZM62.9575 9.81592C62.9595 9.92127 62.9224 10.0228 62.8551 10.0967L60.6784 12.5514C60.6146 12.6235 60.5276 12.6641 60.4369 12.6641C60.3461 12.6641 60.2591 12.6235 60.1953 12.5514L58.0183 10.0967C57.951 10.0228 57.914 9.92119 57.916 9.81584C57.918 9.71049 57.9588 9.61072 58.0288 9.54011C59.4189 8.22621 61.4548 8.22621 62.8449 9.54011C62.9149 9.61078 62.9556 9.71057 62.9575 9.81592Z" fill="black"/>
<rect opacity="0.35" x="76.5068" y="0.5" width="24" height="12" rx="3.8" stroke="black"/>
<path opacity="0.4" d="M102.007 4.78113V8.8566C102.812 8.51143 103.335 7.70847 103.335 6.81886C103.335 5.92926 102.812 5.1263 102.007 4.78113Z" fill="black"/>
<rect x="78.0068" y="2" width="21" height="9" rx="2.5" fill="black"/>
</svg>
